<svg xmlns="http://www.w3.org/2000/svg" width="33" height="33" viewBox="37 1718.95 33 33"><g data-name="Group 19"><path d="M37 1735.4a16.5 16.5 0 1 1 0 .1z" fill="#1c4961" fill-rule="evenodd" data-name="Ellipse 16"/><g data-name="noun_Hotel_1135080"><g data-name="Group 14"><path d="M50.054 1732.808h-.224c-.56 0-1.017.456-1.017 1.016v1.693h.677v-1.693a.34.34 0 0 1 .34-.339h.224a.34.34 0 0 1 .34.34v1.692h.676v-1.693c0-.56-.455-1.016-1.016-1.016Z" fill="#fff" fill-rule="evenodd" data-name="Path 122"/><path d="M50.054 1740.257h-.224c-.56 0-1.017.456-1.017 1.017v1.692h.677v-1.692a.34.34 0 0 1 .34-.34h.224a.34.34 0 0 1 .34.34v1.692h.676v-1.692c0-.56-.455-1.017-1.016-1.017Z" fill="#fff" fill-rule="evenodd" data-name="Path 123"/><path d="M50.054 1736.42h-.224c-.56 0-1.017.456-1.017 1.016v1.692h.677v-1.692a.34.34 0 0 1 .34-.34h.224a.34.34 0 0 1 .34.34v1.692h.676v-1.692c0-.56-.455-1.016-1.016-1.016Z" fill="#fff" fill-rule="evenodd" data-name="Path 124"/><path d="M53.44 1732.808h-.224c-.56 0-1.017.456-1.017 1.016v1.693h.678v-1.693a.34.34 0 0 1 .339-.339h.224a.34.34 0 0 1 .34.34v1.692h.677v-1.693c0-.56-.456-1.016-1.017-1.016Z" fill="#fff" fill-rule="evenodd" data-name="Path 125"/><path d="M53.44 1736.42h-.224c-.56 0-1.017.456-1.017 1.016v1.692h.678v-1.692a.34.34 0 0 1 .339-.34h.224a.34.34 0 0 1 .34.34v1.692h.677v-1.692c0-.56-.456-1.016-1.017-1.016Z" fill="#fff" fill-rule="evenodd" data-name="Path 126"/><path d="m46.883 1729.502 1.034.441-.1-1.12.739-.846-1.096-.25-.577-.965-.577.964-1.095.25.738.847-.1 1.12 1.034-.441Zm-.144-1.18.144-.241.145.24.273.063-.185.212.026.28-.259-.11-.258.11.025-.28-.185-.212.274-.062Z" fill="#fff" fill-rule="evenodd" data-name="Path 127"/><path d="m48.842 1728.066 1.034-.442.513.22.52.207-.1-1.105.74-.846-1.097-.25-.576-.966-.577.966-1.097.25.74.846-.1 1.12Zm.89-1.62.144-.241.144.24.273.063-.185.21.026.28-.258-.11-.258.11.026-.28-.185-.21.273-.063Z" fill="#fff" fill-rule="evenodd" data-name="Path 128"/><path d="m52.317 1727.434 1.034-.445 1.035.445-.103-1.122.728-.85-1.083-.246-.577-.968-.576.968-1.099.249.743.847-.102 1.122Zm.891-1.622.144-.24.142.24.273.062-.184.21.025.279-.257-.11-.257.11.026-.279-.185-.21.273-.062Z" fill="#fff" fill-rule="evenodd" data-name="Path 129"/><path d="m55.779 1728.132 1.035-.446 1.036.446-.104-1.123.744-.847-1.1-.249-.576-.968-.576.969-1.099.249.744.846-.104 1.123Zm.893-1.622.143-.24.142.24.273.062-.185.21.026.277-.257-.11-.256.11.026-.278-.185-.21.273-.06Z" fill="#fff" fill-rule="evenodd" data-name="Path 130"/><path d="m58.841 1728.94-.105 1.123 1.037-.447 1.036.447-.105-1.124.746-.847-1.102-.247-.575-.971-.576.97-1.1.248.744.847Zm.79-.499.142-.24.142.24.272.061-.184.21.026.277-.256-.11-.256.11.026-.277-.184-.21.272-.06Z" fill="#fff" fill-rule="evenodd" data-name="Path 131"/><path d="M59.197 1735.325v-3.195h.903v-.677h-2.032v-1.805h.454v-.677H48.135v.677h.453v1.805h-2.032v.677h.903v12.642h-1.58v.677H57.612c.724 1.356 1.014 1.358 1.145 1.358.177 0 .647 0 2.095-3.381.332-.775 1.415-3.399 1.415-4.622a3.513 3.513 0 0 0-3.07-3.48Zm-9.932-5.677h8.126v1.805h-8.126v-1.805Zm3.16 15.124v-4.063h2.032v4.063h-2.032Zm2.71 0v-4.74h-3.387v4.74h-3.612v-12.642H58.52v3.176a3.473 3.473 0 0 0-.677.113v-1.595c0-.56-.456-1.016-1.017-1.016h-.224c-.56 0-1.017.456-1.017 1.016v1.693h.678v-1.693a.34.34 0 0 1 .339-.339h.224a.34.34 0 0 1 .34.34v1.692h.371a3.513 3.513 0 0 0-2.29 3.287c0 1.223 1.083 3.847 1.415 4.622.225.526.427.97.607 1.346h-2.135Zm3.622 1.27c-.723-.889-2.833-5.737-2.833-7.238a2.836 2.836 0 0 1 2.833-2.833 2.836 2.836 0 0 1 2.832 2.833c0 1.501-2.109 6.35-2.832 7.239Z" fill="#fff" fill-rule="evenodd" data-name="Path 132"/><path d="M58.757 1737.144c-.916 0-1.66.744-1.66 1.66 0 .915.744 1.66 1.66 1.66.915 0 1.66-.745 1.66-1.66 0-.916-.745-1.66-1.66-1.66Zm0 2.642a.984.984 0 0 1 0-1.965.984.984 0 0 1 0 1.965Z" fill="#fff" fill-rule="evenodd" data-name="Path 133"/></g></g></g></svg>